<svg xmlns="http://www.w3.org/2000/svg" width="25.841" height="25.841" viewBox="0 0 29.841 29.841"><path d="M6.613,148.242,5.575,152.12l-3.8.08a14.946,14.946,0,0,1-.11-13.932h0l3.38.62,1.481,3.36a8.9,8.9,0,0,0,.084,6Z" transform="translate(0 -130.209)" fill="#fbbb00"/><path d="M275.96,208.176a14.914,14.914,0,0,1-5.319,14.423h0l-4.257-.217-.6-3.761a8.892,8.892,0,0,0,3.826-4.541h-7.978v-5.9H275.96Z" transform="translate(-246.38 -196.043)" fill="#518ef8"/><path d="M52.991,317.931h0a14.925,14.925,0,0,1-22.483-4.565l4.835-3.958a8.874,8.874,0,0,0,12.787,4.543Z" transform="translate(-28.731 -291.376)" fill="#28b446"/><path d="M51.4,3.435,46.566,7.392a8.873,8.873,0,0,0-13.081,4.646L28.625,8.059h0A14.923,14.923,0,0,1,51.4,3.435Z" transform="translate(-26.956)" fill="#f14336"/></svg>